<svg xmlns="http://www.w3.org/2000/svg" width="100" height="62" viewBox="0 0 100 62"><defs><style>.a{fill:#f2cc85;}.b{fill:#073040;}</style></defs><title>logo</title><rect class="a" width="100" height="62"/><path class="b" d="M13.1,26.78V21.65H11.62V18.09H13.1V14.9h4.38v3.19h2.91v3.56H17.48v4.27c0,.88.4,1.26,1.2,1.26a3.89,3.89,0,0,0,1.66-.42v3.47a6.21,6.21,0,0,1-3,.72C14.67,31,13.1,29.79,13.1,26.78Z"/><path class="b" d="M22.6,13.69H27v6.12a4.59,4.59,0,0,1,3.74-2c2.65,0,4.24,1.77,4.24,4.64V30.7H30.59V23.87c0-1.38-.72-2.12-1.76-2.12S27,22.49,27,23.87V30.7H22.6Z"/><path class="b" d="M37,24.45V24.4a6.29,6.29,0,0,1,6.3-6.59c4.32,0,6.3,3.19,6.3,6.9,0,.28,0,.6,0,.91H41.27A2.58,2.58,0,0,0,44,27.69a3.76,3.76,0,0,0,2.76-1.28l2.43,2A6.53,6.53,0,0,1,43.74,31,6.31,6.31,0,0,1,37,24.45Zm8.5-1.09c-.17-1.4-1-2.29-2.17-2.29s-1.94.91-2.17,2.29Z"/><path class="b" d="M11.79,36.05H16v1.36A3.83,3.83,0,0,1,19,35.81a3.15,3.15,0,0,1,3,1.68,4.3,4.3,0,0,1,3.41-1.68c2.16,0,3.49,1.42,3.49,3.71v6.71H24.71V40.84c0-.85-.5-1.34-1.1-1.34a1.22,1.22,0,0,0-1.17,1.34v5.39H18.25V40.84c0-.85-.5-1.34-1.11-1.34A1.21,1.21,0,0,0,16,40.84v5.39H11.79Z"/><path class="b" d="M30,41.18v0a5.45,5.45,0,0,1,5.69-5.33,5.4,5.4,0,0,1,5.65,5.29v0a5.45,5.45,0,0,1-5.69,5.33A5.4,5.4,0,0,1,30,41.18Zm7.31,0v0a1.72,1.72,0,0,0-1.66-1.81,1.68,1.68,0,0,0-1.62,1.77v0A1.73,1.73,0,0,0,35.71,43,1.68,1.68,0,0,0,37.33,41.18Z"/><path class="b" d="M42.55,36.05h4.2v1.42a3.87,3.87,0,0,1,3.08-1.66c2.12,0,3.45,1.42,3.45,3.71v6.71H49.09V40.88c0-.88-.52-1.38-1.14-1.38a1.25,1.25,0,0,0-1.2,1.38v5.35h-4.2Z"/><path class="b" d="M54,45l1.42-2.4a7.27,7.27,0,0,0,3.73,1.13c.4,0,.61-.09.61-.33v0c0-.2-.19-.34-1.2-.6-2.55-.63-4.12-1.32-4.12-3.43v0c0-2.23,1.77-3.48,4.39-3.48A8.94,8.94,0,0,1,63.36,37L62,39.5a7.33,7.33,0,0,0-3.21-1c-.41,0-.6.11-.6.32v0c0,.21.23.34,1.24.6,2.55.63,4.08,1.34,4.08,3.43v0c0,2.22-1.64,3.5-4.37,3.5A9.15,9.15,0,0,1,54,45Z"/><path class="b" d="M65.25,42.82V39.31H64.07V36.05h1.18V33.5h4.2v2.55h2.32v3.26H69.45v2.58c0,.76.35,1,1,1a3.09,3.09,0,0,0,1.28-.32v3.27a6.1,6.1,0,0,1-2.68.58C66.58,46.46,65.25,45.3,65.25,42.82Z"/><path class="b" d="M72.38,41.2v0a5.12,5.12,0,0,1,5.19-5.35c3.58,0,5.24,2.52,5.24,5.61,0,.22,0,.49,0,.71H76.31a1.9,1.9,0,0,0,1.9,1.36,2.78,2.78,0,0,0,2.05-1l2.25,1.8a5.4,5.4,0,0,1-4.59,2.22C74.61,46.47,72.38,44.37,72.38,41.2ZM79,40.26a1.47,1.47,0,0,0-1.41-1.52c-.7,0-1.2.59-1.32,1.52Z"/><path class="b" d="M84,36.05h4.19V38.1a3.06,3.06,0,0,1,3.16-2.2v4.5h-.45c-1.77,0-2.71,1-2.71,3.24v2.59H84Z"/></svg>